<svg viewBox="0 0 32 32" fill="none" xmlns="http://www.w3.org/2000/svg">
                        <g id="SVGRepo_bgCarrier" stroke-width="0"></g>
                        <g id="SVGRepo_tracerCarrier" stroke-linecap="round" stroke-linejoin="round"></g>
                        <g id="SVGRepo_iconCarrier">
                            <path
                                d="M5 23.5601C5 24.3557 5.64998 25.0001 6.45081 25.0001H6.47166C5.65857 25.0001 5 24.3557 5 23.5601Z"
                                fill="#FBBC05"></path>
                            <path
                                d="M17.4678 12.4V16.1596L22.5364 12.0712V8.43999C22.5364 7.6444 21.8864 7 21.0856 7H10.1045L10.0947 12.4H17.4678Z"
                                fill="#FBBC05"></path>
                            <path
                                d="M17.4671 19.9207H10.0818L10.0732 25.0003H21.085C21.887 25.0003 22.5358 24.3559 22.5358 23.5603V20.2819L17.4671 16.1611V19.9207Z"
                                fill="#34A853"></path>
                            <path d="M10.1042 7L5 12.4H10.0956L10.1042 7Z" fill="#EA4335"></path>
                            <path d="M5 19.9204V23.56C5 24.3556 5.65857 25 6.47166 25H10.0736L10.0821 19.9204H5Z"
                                fill="#1967D2"></path>
                            <path d="M10.0956 12.3999H5V19.9203H10.0821L10.0956 12.3999Z" fill="#4285F4"></path>
                            <path
                                d="M26.9926 22.2796V9.9197C26.7068 8.27931 24.9077 10.1597 24.9077 10.1597L22.5371 12.0713V20.2804L25.9305 23.0392C27.1557 23.2 26.9926 22.2796 26.9926 22.2796Z"
                                fill="#34A853"></path>
                            <path d="M17.4678 16.1594L22.5377 20.2814V12.0723L17.4678 16.1594Z" fill="#188038"></path>
                        </g>
                    </svg>