<svg width="446" height="161" viewBox="0 0 446 161" fill="none" xmlns="http://www.w3.org/2000/svg">
<path d="M76.3881 12.4696C76.3219 11.3117 77.2071 10.3161 78.3665 10.2848C90.1604 9.9657 101.856 12.633 112.361 18.054C123.488 23.7964 132.871 32.4184 139.533 43.0213C146.194 53.6242 149.889 65.8197 150.233 78.3367C150.577 90.8536 147.557 103.234 141.488 114.186C135.419 125.139 126.523 134.263 115.728 140.608C104.933 146.953 92.6333 150.285 80.1117 150.259C67.5901 150.233 55.3047 146.848 44.5363 140.458C34.3706 134.425 25.9081 125.923 19.9257 115.754C19.3376 114.754 19.7124 113.476 20.7292 112.918C21.7461 112.36 23.0197 112.734 23.6097 113.733C29.2294 123.243 37.1601 131.197 46.6797 136.846C56.802 142.853 68.3502 146.034 80.1206 146.059C91.8909 146.084 103.452 142.951 113.6 136.987C123.747 131.023 132.109 122.446 137.814 112.151C143.519 101.855 146.358 90.2179 146.034 78.452C145.711 66.6861 142.238 55.2223 135.976 45.2556C129.715 35.2888 120.894 27.1842 110.435 21.7863C100.598 16.7099 89.6496 14.2023 78.606 14.48C77.4466 14.5091 76.4542 13.6275 76.3881 12.4696Z" fill="url(#paint0_linear_137_133)"/>
<path d="M76.8689 22.158C76.811 21.1656 77.5686 20.3113 78.5623 20.2832C87.0816 20.0421 95.562 21.6188 103.436 24.9162C111.864 28.4456 119.374 33.8532 125.394 40.7265C131.414 47.5998 135.785 55.7572 138.173 64.5766C140.562 73.3959 140.904 82.6442 139.175 91.616C137.445 100.588 133.689 109.046 128.194 116.346C122.699 123.646 115.609 129.594 107.465 133.737C99.3213 137.88 90.339 140.108 81.2031 140.252C72.6677 140.386 64.209 138.697 56.3897 135.307C55.4776 134.911 55.0919 133.837 55.5145 132.937C55.9372 132.037 57.0082 131.653 57.921 132.047C65.2434 135.205 73.1593 136.778 81.1465 136.652C89.7342 136.517 98.1776 134.422 105.833 130.528C113.488 126.634 120.152 121.042 125.318 114.181C130.484 107.319 134.014 99.3681 135.64 90.9346C137.265 82.5011 136.943 73.8077 134.699 65.5175C132.454 57.2273 128.345 49.5593 122.686 43.0985C117.027 36.6376 109.967 31.5544 102.045 28.2368C94.6771 25.1511 86.7439 23.6685 78.7721 23.8788C77.7784 23.905 76.9268 23.1504 76.8689 22.158Z" fill="url(#paint1_linear_137_133)"/>
<path d="M94.1897 126.744C94.4487 127.675 95.4149 128.223 96.3364 127.932C107.61 124.367 117.277 116.912 123.59 106.87C130.214 96.3329 132.67 83.7041 130.477 71.4524C128.285 59.2008 121.602 48.2072 111.735 40.6209C102.332 33.3908 90.6804 29.7509 78.8698 30.3163C77.9044 30.3625 77.1881 31.2113 77.2681 32.1745C77.348 33.1377 78.1939 33.8502 79.1594 33.8066C90.1013 33.3117 100.889 36.6965 109.602 43.3956C118.778 50.4508 124.993 60.6749 127.032 72.0689C129.071 83.4629 126.787 95.2077 120.626 105.007C114.777 114.312 105.832 121.228 95.3977 124.558C94.477 124.851 93.9307 125.813 94.1897 126.744Z" fill="url(#paint2_linear_137_133)"/>
<path d="M58.9503 32.5013C58.3345 31.7563 57.2292 31.6493 56.5062 32.2908C50.5806 37.5485 45.9824 44.1452 43.101 51.5424C40.0075 59.4838 38.9953 68.0841 40.1605 76.5266C41.3256 84.9692 44.6295 92.9738 49.7583 99.7804C54.4851 106.053 61.3519 110.788 67.8513 114.559C68.7266 115.066 69.844 114.682 70.2362 113.749C70.594 112.898 70.2027 111.92 69.3723 111.517C62.7563 108.303 56.9894 103.561 52.5536 97.6741C47.7838 91.344 44.7112 83.8997 43.6276 76.0481C42.544 68.1965 43.4854 60.1983 46.3623 52.8128C49.0272 45.9716 53.271 39.8665 58.7376 34.9902C59.4589 34.3469 59.5661 33.2462 58.9503 32.5013Z" fill="url(#paint3_linear_137_133)"/>
<path d="M63.0001 57.0004C63.0001 54.7912 64.7909 53.0004 67.0001 53.0004C69.2092 53.0004 71.0001 54.7912 71.0001 57.0004V113.172C71.0001 114.913 68.7977 115.668 67.7291 114.295C67.578 114.1 67.3891 113.938 67.1739 113.819L65.5718 112.929C63.9845 112.047 63.0001 110.374 63.0001 108.558V57.0004Z" fill="url(#paint4_linear_137_133)"/>
<path d="M97.0001 36.202C97.0001 34.3333 99.225 33.36 100.597 34.6282C100.862 34.8724 101.183 35.0461 101.532 35.1333L101.987 35.2472C103.758 35.6898 105 37.2807 105 39.1058V94.0003C105 96.2095 103.209 98.0003 101 98.0003C98.7909 98.0003 97.0001 96.2095 97.0001 94.0003V36.202Z" fill="url(#paint5_linear_137_133)"/>
<rect x="97" y="69" width="8" height="26" transform="rotate(90 97 69)" fill="url(#paint6_linear_137_133)"/>
<path d="M172.34 33C173.06 33 173.69 33.27 174.23 33.81C174.83 34.35 175.13 35.01 175.13 35.79V93.21C175.07 93.99 174.74 94.65 174.14 95.19C173.6 95.73 172.97 96 172.25 96C171.41 96 170.72 95.73 170.18 95.19C169.7 94.65 169.46 93.99 169.46 93.21V35.79C169.46 35.01 169.73 34.35 170.27 33.81C170.81 33.27 171.5 33 172.34 33ZM214.55 33C215.39 33 216.05 33.27 216.53 33.81C217.07 34.35 217.34 35.01 217.34 35.79V93.21C217.28 93.99 216.98 94.65 216.44 95.19C215.96 95.73 215.3 96 214.46 96C213.68 96 213.02 95.73 212.48 95.19C211.94 94.65 211.67 93.99 211.67 93.21V35.79C211.67 35.01 211.94 34.35 212.48 33.81C213.08 33.27 213.77 33 214.55 33ZM171.89 61.17H214.64L214.55 66.39H171.53L171.89 61.17ZM253.675 96.9C249.055 96.9 244.975 95.91 241.435 93.93C237.895 91.95 235.135 89.19 233.155 85.65C231.175 82.11 230.185 77.97 230.185 73.23C230.185 68.13 231.175 63.78 233.155 60.18C235.195 56.58 237.805 53.82 240.985 51.9C244.225 49.92 247.645 48.93 251.245 48.93C253.885 48.93 256.435 49.41 258.895 50.37C261.415 51.27 263.635 52.65 265.555 54.51C267.535 56.31 269.095 58.53 270.235 61.17C271.435 63.81 272.095 66.87 272.215 70.35C272.155 71.07 271.855 71.7 271.315 72.24C270.775 72.72 270.145 72.96 269.425 72.96H233.335L232.255 68.1H267.715L266.545 69.18V67.38C266.305 64.56 265.405 62.16 263.845 60.18C262.285 58.2 260.395 56.7 258.175 55.68C255.955 54.66 253.645 54.15 251.245 54.15C249.445 54.15 247.585 54.51 245.665 55.23C243.805 55.95 242.095 57.09 240.535 58.65C239.035 60.15 237.805 62.1 236.845 64.5C235.885 66.84 235.405 69.63 235.405 72.87C235.405 76.41 236.125 79.62 237.565 82.5C239.005 85.38 241.075 87.66 243.775 89.34C246.535 91.02 249.805 91.86 253.585 91.86C255.685 91.86 257.575 91.56 259.255 90.96C260.935 90.36 262.405 89.58 263.665 88.62C264.925 87.6 265.975 86.55 266.815 85.47C267.475 84.93 268.135 84.66 268.795 84.66C269.395 84.66 269.905 84.9 270.325 85.38C270.805 85.86 271.045 86.4 271.045 87C271.045 87.72 270.745 88.35 270.145 88.89C268.345 91.05 266.005 92.94 263.125 94.56C260.245 96.12 257.095 96.9 253.675 96.9ZM289.714 93.3C289.714 94.02 289.444 94.65 288.904 95.19C288.364 95.73 287.734 96 287.014 96C286.234 96 285.574 95.73 285.034 95.19C284.554 94.65 284.314 94.02 284.314 93.3V32.1C284.314 31.38 284.584 30.75 285.124 30.21C285.664 29.67 286.294 29.4 287.014 29.4C287.794 29.4 288.424 29.67 288.904 30.21C289.444 30.75 289.714 31.38 289.714 32.1V93.3ZM326.386 49.65C330.466 49.65 334.066 50.67 337.186 52.71C340.366 54.69 342.886 57.45 344.746 60.99C346.606 64.47 347.536 68.49 347.536 73.05C347.536 77.61 346.606 81.66 344.746 85.2C342.886 88.74 340.366 91.53 337.186 93.57C334.006 95.61 330.436 96.63 326.476 96.63C324.376 96.63 322.366 96.33 320.446 95.73C318.586 95.07 316.876 94.2 315.316 93.12C313.756 92.04 312.376 90.78 311.176 89.34C309.976 87.84 309.016 86.22 308.296 84.48L309.916 83.31V111.3C309.916 112.02 309.646 112.65 309.106 113.19C308.626 113.73 307.996 114 307.216 114C306.436 114 305.776 113.73 305.236 113.19C304.756 112.65 304.516 112.02 304.516 111.3V52.62C304.516 51.84 304.756 51.18 305.236 50.64C305.716 50.1 306.376 49.83 307.216 49.83C307.996 49.83 308.626 50.1 309.106 50.64C309.646 51.18 309.916 51.84 309.916 52.62V62.34L308.656 61.62C309.256 59.76 310.126 58.11 311.266 56.67C312.466 55.17 313.846 53.91 315.406 52.89C316.966 51.81 318.676 51 320.536 50.46C322.396 49.92 324.346 49.65 326.386 49.65ZM325.936 54.69C322.696 54.69 319.846 55.5 317.386 57.12C314.926 58.68 312.976 60.84 311.536 63.6C310.156 66.3 309.466 69.45 309.466 73.05C309.466 76.59 310.156 79.77 311.536 82.59C312.976 85.41 314.926 87.63 317.386 89.25C319.846 90.81 322.696 91.59 325.936 91.59C329.116 91.59 331.906 90.81 334.306 89.25C336.766 87.63 338.716 85.41 340.156 82.59C341.596 79.77 342.316 76.59 342.316 73.05C342.316 69.51 341.596 66.36 340.156 63.6C338.716 60.84 336.766 58.68 334.306 57.12C331.906 55.5 329.116 54.69 325.936 54.69ZM366.116 93.21C366.056 93.99 365.726 94.65 365.126 95.19C364.586 95.73 363.956 96 363.236 96C362.396 96 361.706 95.73 361.166 95.19C360.686 94.65 360.446 93.99 360.446 93.21V35.79C360.446 35.01 360.716 34.35 361.256 33.81C361.796 33.27 362.486 33 363.326 33C364.046 33 364.676 33.27 365.216 33.81C365.816 34.35 366.116 35.01 366.116 35.79V93.21ZM443.426 101.04C444.086 101.04 444.656 101.25 445.136 101.67C445.616 102.15 445.856 102.75 445.856 103.47C445.856 104.49 445.316 105.48 444.236 106.44C443.216 107.4 441.836 108.27 440.096 109.05C438.416 109.89 436.616 110.52 434.696 110.94C432.836 111.42 431.066 111.66 429.386 111.66C425.846 111.66 422.876 111.27 420.476 110.49C418.076 109.71 415.976 108.81 414.176 107.79C412.376 106.77 410.546 105.87 408.686 105.09C406.826 104.31 404.606 103.92 402.026 103.92C400.946 103.92 399.986 104.1 399.146 104.46C398.366 104.82 397.616 105.15 396.896 105.45C396.236 105.81 395.516 105.99 394.736 105.99C394.016 105.99 393.386 105.72 392.846 105.18C392.366 104.64 392.126 103.98 392.126 103.2C392.126 102.12 392.636 101.37 393.656 100.95L409.136 95.37L417.416 95.64L403.106 100.5L404.276 99.24C406.796 99.24 409.046 99.6 411.026 100.32C413.006 101.04 414.896 101.88 416.696 102.84C418.556 103.86 420.506 104.73 422.546 105.45C424.586 106.23 426.926 106.62 429.566 106.62C431.906 106.62 433.826 106.26 435.326 105.54C436.886 104.88 438.146 104.28 439.106 103.74C440.006 103.2 440.756 102.6 441.356 101.94C442.016 101.34 442.706 101.04 443.426 101.04ZM439.106 64.5C439.106 69.24 438.356 73.59 436.856 77.55C435.416 81.45 433.346 84.87 430.646 87.81C427.946 90.69 424.736 92.94 421.016 94.56C417.356 96.12 413.336 96.9 408.956 96.9C404.576 96.9 400.526 96.12 396.806 94.56C393.146 92.94 389.966 90.69 387.266 87.81C384.566 84.87 382.466 81.45 380.966 77.55C379.526 73.59 378.806 69.24 378.806 64.5C378.806 59.76 379.526 55.44 380.966 51.54C382.466 47.58 384.566 44.16 387.266 41.28C389.966 38.34 393.146 36.09 396.806 34.53C400.526 32.91 404.576 32.1 408.956 32.1C413.336 32.1 417.356 32.91 421.016 34.53C424.736 36.09 427.946 38.34 430.646 41.28C433.346 44.16 435.416 47.58 436.856 51.54C438.356 55.44 439.106 59.76 439.106 64.5ZM433.346 64.5C433.346 59.16 432.296 54.48 430.196 50.46C428.156 46.38 425.306 43.2 421.646 40.92C417.986 38.64 413.756 37.5 408.956 37.5C404.216 37.5 399.986 38.64 396.266 40.92C392.606 43.2 389.726 46.38 387.626 50.46C385.586 54.48 384.566 59.16 384.566 64.5C384.566 69.84 385.586 74.55 387.626 78.63C389.726 82.65 392.606 85.8 396.266 88.08C399.986 90.36 404.216 91.5 408.956 91.5C413.756 91.5 417.986 90.36 421.646 88.08C425.306 85.8 428.156 82.65 430.196 78.63C432.296 74.55 433.346 69.84 433.346 64.5Z" fill="url(#paint7_linear_137_133)"/>
<path d="M217.848 120.848V129.088C217.848 130.005 217.565 130.741 217 131.296C216.435 131.84 215.688 132.112 214.76 132.112C213.821 132.112 213.069 131.835 212.504 131.28C211.939 130.715 211.656 129.947 211.656 128.976H213.112C213.123 129.52 213.261 129.963 213.528 130.304C213.805 130.645 214.216 130.816 214.76 130.816C215.304 130.816 215.709 130.656 215.976 130.336C216.243 130.005 216.376 129.589 216.376 129.088V120.848H217.848ZM228.492 123.232V132H227.036V130.704C226.759 131.152 226.37 131.504 225.868 131.76C225.378 132.005 224.834 132.128 224.236 132.128C223.554 132.128 222.94 131.989 222.396 131.712C221.852 131.424 221.42 130.997 221.1 130.432C220.791 129.867 220.636 129.179 220.636 128.368V123.232H222.076V128.176C222.076 129.04 222.295 129.707 222.732 130.176C223.17 130.635 223.767 130.864 224.524 130.864C225.303 130.864 225.916 130.624 226.364 130.144C226.812 129.664 227.036 128.965 227.036 128.048V123.232H228.492ZM234.055 132.144C233.383 132.144 232.78 132.032 232.247 131.808C231.713 131.573 231.292 131.253 230.983 130.848C230.673 130.432 230.503 129.957 230.471 129.424H231.975C232.017 129.861 232.22 130.219 232.583 130.496C232.956 130.773 233.441 130.912 234.039 130.912C234.593 130.912 235.031 130.789 235.351 130.544C235.671 130.299 235.831 129.989 235.831 129.616C235.831 129.232 235.66 128.949 235.319 128.768C234.977 128.576 234.449 128.389 233.735 128.208C233.084 128.037 232.551 127.867 232.135 127.696C231.729 127.515 231.377 127.253 231.079 126.912C230.791 126.56 230.647 126.101 230.647 125.536C230.647 125.088 230.78 124.677 231.047 124.304C231.313 123.931 231.692 123.637 232.183 123.424C232.673 123.2 233.233 123.088 233.863 123.088C234.833 123.088 235.617 123.333 236.215 123.824C236.812 124.315 237.132 124.987 237.175 125.84H235.719C235.687 125.381 235.5 125.013 235.159 124.736C234.828 124.459 234.38 124.32 233.815 124.32C233.292 124.32 232.876 124.432 232.567 124.656C232.257 124.88 232.103 125.173 232.103 125.536C232.103 125.824 232.193 126.064 232.375 126.256C232.567 126.437 232.801 126.587 233.079 126.704C233.367 126.811 233.761 126.933 234.263 127.072C234.892 127.243 235.404 127.413 235.799 127.584C236.193 127.744 236.529 127.989 236.807 128.32C237.095 128.651 237.244 129.083 237.255 129.616C237.255 130.096 237.121 130.528 236.855 130.912C236.588 131.296 236.209 131.6 235.719 131.824C235.239 132.037 234.684 132.144 234.055 132.144ZM241.086 124.432V129.6C241.086 130.027 241.177 130.331 241.358 130.512C241.54 130.683 241.854 130.768 242.302 130.768H243.374V132H242.062C241.252 132 240.644 131.813 240.238 131.44C239.833 131.067 239.63 130.453 239.63 129.6V124.432H238.494V123.232H239.63V121.024H241.086V123.232H243.374V124.432H241.086ZM255.996 129.52H251.132L250.236 132H248.7L252.732 120.912H254.412L258.428 132H256.892L255.996 129.52ZM255.58 128.336L253.564 122.704L251.548 128.336H255.58ZM263.289 132.144C262.617 132.144 262.015 132.032 261.481 131.808C260.948 131.573 260.527 131.253 260.217 130.848C259.908 130.432 259.737 129.957 259.705 129.424H261.209C261.252 129.861 261.455 130.219 261.817 130.496C262.191 130.773 262.676 130.912 263.273 130.912C263.828 130.912 264.265 130.789 264.585 130.544C264.905 130.299 265.065 129.989 265.065 129.616C265.065 129.232 264.895 128.949 264.553 128.768C264.212 128.576 263.684 128.389 262.969 128.208C262.319 128.037 261.785 127.867 261.369 127.696C260.964 127.515 260.612 127.253 260.313 126.912C260.025 126.56 259.881 126.101 259.881 125.536C259.881 125.088 260.015 124.677 260.281 124.304C260.548 123.931 260.927 123.637 261.417 123.424C261.908 123.2 262.468 123.088 263.097 123.088C264.068 123.088 264.852 123.333 265.449 123.824C266.047 124.315 266.367 124.987 266.409 125.84H264.953C264.921 125.381 264.735 125.013 264.393 124.736C264.063 124.459 263.615 124.32 263.049 124.32C262.527 124.32 262.111 124.432 261.801 124.656C261.492 124.88 261.337 125.173 261.337 125.536C261.337 125.824 261.428 126.064 261.609 126.256C261.801 126.437 262.036 126.587 262.313 126.704C262.601 126.811 262.996 126.933 263.497 127.072C264.127 127.243 264.639 127.413 265.033 127.584C265.428 127.744 265.764 127.989 266.041 128.32C266.329 128.651 266.479 129.083 266.489 129.616C266.489 130.096 266.356 130.528 266.089 130.912C265.823 131.296 265.444 131.6 264.953 131.824C264.473 132.037 263.919 132.144 263.289 132.144ZM273.441 132L270.001 128.128V132H268.545V120.16H270.001V127.12L273.377 123.232H275.409L271.281 127.6L275.425 132H273.441ZM277.243 132.096C276.966 132.096 276.731 132 276.539 131.808C276.347 131.616 276.251 131.381 276.251 131.104C276.251 130.827 276.347 130.592 276.539 130.4C276.731 130.208 276.966 130.112 277.243 130.112C277.51 130.112 277.734 130.208 277.915 130.4C278.107 130.592 278.203 130.827 278.203 131.104C278.203 131.381 278.107 131.616 277.915 131.808C277.734 132 277.51 132.096 277.243 132.096ZM292.996 120.848V132H291.54V126.944H285.86V132H284.404V120.848H285.86V125.744H291.54V120.848H292.996ZM303.482 127.28C303.482 127.557 303.466 127.851 303.434 128.16H296.426C296.479 129.024 296.773 129.701 297.306 130.192C297.85 130.672 298.506 130.912 299.274 130.912C299.903 130.912 300.426 130.768 300.842 130.48C301.269 130.181 301.567 129.787 301.738 129.296H303.306C303.071 130.139 302.602 130.827 301.898 131.36C301.194 131.883 300.319 132.144 299.274 132.144C298.442 132.144 297.695 131.957 297.034 131.584C296.383 131.211 295.871 130.683 295.498 130C295.125 129.307 294.938 128.507 294.938 127.6C294.938 126.693 295.119 125.899 295.482 125.216C295.845 124.533 296.351 124.011 297.002 123.648C297.663 123.275 298.421 123.088 299.274 123.088C300.106 123.088 300.842 123.269 301.482 123.632C302.122 123.995 302.613 124.496 302.954 125.136C303.306 125.765 303.482 126.48 303.482 127.28ZM301.978 126.976C301.978 126.421 301.855 125.947 301.61 125.552C301.365 125.147 301.029 124.843 300.602 124.64C300.186 124.427 299.722 124.32 299.21 124.32C298.474 124.32 297.845 124.555 297.322 125.024C296.81 125.493 296.517 126.144 296.442 126.976H301.978ZM306.86 120.16V132H305.404V120.16H306.86ZM310.797 124.848C311.085 124.347 311.512 123.931 312.077 123.6C312.653 123.259 313.32 123.088 314.077 123.088C314.856 123.088 315.56 123.275 316.189 123.648C316.829 124.021 317.331 124.549 317.693 125.232C318.056 125.904 318.237 126.688 318.237 127.584C318.237 128.469 318.056 129.259 317.693 129.952C317.331 130.645 316.829 131.184 316.189 131.568C315.56 131.952 314.856 132.144 314.077 132.144C313.331 132.144 312.669 131.979 312.093 131.648C311.528 131.307 311.096 130.885 310.797 130.384V136.16H309.341V123.232H310.797V124.848ZM316.749 127.584C316.749 126.923 316.616 126.347 316.349 125.856C316.083 125.365 315.72 124.992 315.261 124.736C314.813 124.48 314.317 124.352 313.773 124.352C313.24 124.352 312.744 124.485 312.285 124.752C311.837 125.008 311.475 125.387 311.197 125.888C310.931 126.379 310.797 126.949 310.797 127.6C310.797 128.261 310.931 128.843 311.197 129.344C311.475 129.835 311.837 130.213 312.285 130.48C312.744 130.736 313.24 130.864 313.773 130.864C314.317 130.864 314.813 130.736 315.261 130.48C315.72 130.213 316.083 129.835 316.349 129.344C316.616 128.843 316.749 128.256 316.749 127.584ZM321.61 120.848V132H320.154V120.848H321.61ZM333.035 134.112L330.811 131.888C330.267 132.037 329.713 132.112 329.147 132.112C328.113 132.112 327.169 131.872 326.315 131.392C325.462 130.901 324.785 130.224 324.283 129.36C323.793 128.485 323.547 127.504 323.547 126.416C323.547 125.328 323.793 124.352 324.283 123.488C324.785 122.613 325.462 121.936 326.315 121.456C327.169 120.965 328.113 120.72 329.147 120.72C330.193 120.72 331.142 120.965 331.995 121.456C332.849 121.936 333.521 122.608 334.011 123.472C334.502 124.336 334.747 125.317 334.747 126.416C334.747 127.483 334.513 128.443 334.043 129.296C333.574 130.149 332.929 130.821 332.107 131.312L334.923 134.112H333.035ZM325.035 126.416C325.035 127.301 325.211 128.08 325.563 128.752C325.926 129.424 326.417 129.941 327.035 130.304C327.665 130.667 328.369 130.848 329.147 130.848C329.926 130.848 330.625 130.667 331.243 130.304C331.873 129.941 332.363 129.424 332.715 128.752C333.078 128.08 333.259 127.301 333.259 126.416C333.259 125.52 333.078 124.741 332.715 124.08C332.363 123.408 331.878 122.891 331.259 122.528C330.641 122.165 329.937 121.984 329.147 121.984C328.358 121.984 327.654 122.165 327.035 122.528C326.417 122.891 325.926 123.408 325.563 124.08C325.211 124.741 325.035 125.52 325.035 126.416ZM347.014 132L342.422 126.912V132H340.966V120.848H342.422V126.016L347.03 120.848H348.87L343.814 126.432L348.918 132H347.014ZM354.817 123.072C355.883 123.072 356.747 123.397 357.409 124.048C358.07 124.688 358.401 125.616 358.401 126.832V132H356.961V127.04C356.961 126.165 356.742 125.499 356.305 125.04C355.867 124.571 355.27 124.336 354.513 124.336C353.745 124.336 353.131 124.576 352.673 125.056C352.225 125.536 352.001 126.235 352.001 127.152V132H350.545V123.232H352.001V124.48C352.289 124.032 352.678 123.685 353.169 123.44C353.67 123.195 354.219 123.072 354.817 123.072ZM364.603 132.144C363.782 132.144 363.035 131.957 362.363 131.584C361.702 131.211 361.179 130.683 360.795 130C360.422 129.307 360.235 128.507 360.235 127.6C360.235 126.704 360.427 125.915 360.811 125.232C361.206 124.539 361.739 124.011 362.411 123.648C363.083 123.275 363.835 123.088 364.667 123.088C365.499 123.088 366.251 123.275 366.923 123.648C367.595 124.011 368.123 124.533 368.507 125.216C368.902 125.899 369.099 126.693 369.099 127.6C369.099 128.507 368.896 129.307 368.491 130C368.096 130.683 367.558 131.211 366.875 131.584C366.192 131.957 365.435 132.144 364.603 132.144ZM364.603 130.864C365.126 130.864 365.616 130.741 366.075 130.496C366.534 130.251 366.902 129.883 367.179 129.392C367.467 128.901 367.611 128.304 367.611 127.6C367.611 126.896 367.472 126.299 367.195 125.808C366.918 125.317 366.555 124.955 366.107 124.72C365.659 124.475 365.174 124.352 364.651 124.352C364.118 124.352 363.627 124.475 363.179 124.72C362.742 124.955 362.39 125.317 362.123 125.808C361.856 126.299 361.723 126.896 361.723 127.6C361.723 128.315 361.851 128.917 362.107 129.408C362.374 129.899 362.726 130.267 363.163 130.512C363.6 130.747 364.08 130.864 364.603 130.864ZM382.693 123.232L379.957 132H378.453L376.341 125.04L374.229 132H372.725L369.973 123.232H371.461L373.477 130.592L375.653 123.232H377.141L379.269 130.608L381.253 123.232H382.693ZM387.242 132.144C386.57 132.144 385.968 132.032 385.434 131.808C384.901 131.573 384.48 131.253 384.17 130.848C383.861 130.432 383.69 129.957 383.658 129.424H385.162C385.205 129.861 385.408 130.219 385.77 130.496C386.144 130.773 386.629 130.912 387.226 130.912C387.781 130.912 388.218 130.789 388.538 130.544C388.858 130.299 389.018 129.989 389.018 129.616C389.018 129.232 388.848 128.949 388.506 128.768C388.165 128.576 387.637 128.389 386.922 128.208C386.272 128.037 385.738 127.867 385.322 127.696C384.917 127.515 384.565 127.253 384.266 126.912C383.978 126.56 383.834 126.101 383.834 125.536C383.834 125.088 383.968 124.677 384.234 124.304C384.501 123.931 384.88 123.637 385.37 123.424C385.861 123.2 386.421 123.088 387.05 123.088C388.021 123.088 388.805 123.333 389.402 123.824C390 124.315 390.32 124.987 390.362 125.84H388.906C388.874 125.381 388.688 125.013 388.346 124.736C388.016 124.459 387.568 124.32 387.002 124.32C386.48 124.32 386.064 124.432 385.754 124.656C385.445 124.88 385.29 125.173 385.29 125.536C385.29 125.824 385.381 126.064 385.562 126.256C385.754 126.437 385.989 126.587 386.266 126.704C386.554 126.811 386.949 126.933 387.45 127.072C388.08 127.243 388.592 127.413 388.986 127.584C389.381 127.744 389.717 127.989 389.994 128.32C390.282 128.651 390.432 129.083 390.442 129.616C390.442 130.096 390.309 130.528 390.042 130.912C389.776 131.296 389.397 131.6 388.906 131.824C388.426 132.037 387.872 132.144 387.242 132.144ZM392.962 132.096C392.684 132.096 392.45 132 392.258 131.808C392.066 131.616 391.97 131.381 391.97 131.104C391.97 130.827 392.066 130.592 392.258 130.4C392.45 130.208 392.684 130.112 392.962 130.112C393.228 130.112 393.452 130.208 393.634 130.4C393.826 130.592 393.922 130.827 393.922 131.104C393.922 131.381 393.826 131.616 393.634 131.808C393.452 132 393.228 132.096 392.962 132.096Z" fill="url(#paint8_linear_137_133)"/>
<defs>
<linearGradient id="paint0_linear_137_133" x1="31.8675" y1="116.446" x2="139.383" y2="48.7175" gradientUnits="userSpaceOnUse">
<stop stop-color="#2F3C7E"/>
<stop offset="1" stop-color="#358597"/>
</linearGradient>
<linearGradient id="paint1_linear_137_133" x1="86.9831" y1="131.614" x2="81.5122" y2="22.8345" gradientUnits="userSpaceOnUse">
<stop stop-color="#2F3C7E"/>
<stop offset="1" stop-color="#358597"/>
</linearGradient>
<linearGradient id="paint2_linear_137_133" x1="124.163" y1="84.9622" x2="35.0172" y2="67.8991" gradientUnits="userSpaceOnUse">
<stop stop-color="#2F3C7E"/>
<stop offset="1" stop-color="#358597"/>
</linearGradient>
<linearGradient id="paint3_linear_137_133" x1="39.5157" y1="85.8378" x2="82.5573" y2="84.8112" gradientUnits="userSpaceOnUse">
<stop stop-color="#2F3C7E"/>
<stop offset="1" stop-color="#358597"/>
</linearGradient>
<linearGradient id="paint4_linear_137_133" x1="65.0933" y1="62.1816" x2="79.4008" y2="65.3419" gradientUnits="userSpaceOnUse">
<stop stop-color="#2F3C7E"/>
<stop offset="1" stop-color="#358597"/>
</linearGradient>
<linearGradient id="paint5_linear_137_133" x1="99.0933" y1="40.6528" x2="113.425" y2="43.7616" gradientUnits="userSpaceOnUse">
<stop stop-color="#2F3C7E"/>
<stop offset="1" stop-color="#358597"/>
</linearGradient>
<linearGradient id="paint6_linear_137_133" x1="99.0932" y1="72.6444" x2="110.551" y2="79.0203" gradientUnits="userSpaceOnUse">
<stop stop-color="#2F3C7E"/>
<stop offset="1" stop-color="#358597"/>
</linearGradient>
<linearGradient id="paint7_linear_137_133" x1="285.5" y1="57" x2="303" y2="119" gradientUnits="userSpaceOnUse">
<stop stop-color="#2F3C7E"/>
<stop offset="1" stop-color="#358597"/>
</linearGradient>
<linearGradient id="paint8_linear_137_133" x1="160.5" y1="127" x2="395" y2="126" gradientUnits="userSpaceOnUse">
<stop stop-color="#358597"/>
<stop offset="1" stop-color="#2F3C7E"/>
</linearGradient>
</defs>
</svg>
